# xmcd
#
# Track frame offsets:
#	150
#	52234
#	101321
#	149371
#
# Disc length: 2622 seconds
#
# Revision: 0
# Processed by: cddbd v1.5.2PL0 Copyright (c) Steve Scherf et al.
# Submitted via: EasyCDDAExtractor 16.0.9.1
#
DISCID=340a3c04
DTITLE=Various Artist - Liên Khúc Xuân Đặc Biệt
DYEAR=1995
DGENRE=Pop
TTITLE0=Liên Khúc Xuân Đặc Biệt 1 - TECHNO MIX
TTITLE1=Liên Khúc Xuân Đặc Biệt 2 - DISCO MIX
TTITLE2=Liên Khúc Xuân Đặc Biệt 3 - ACE OF BASE MIX
TTITLE3=Liên Khúc Xuân Đặc Biệt 4 - CLUB MIX
EXTD=
EXTT0=
EXTT1=
EXTT2=
EXTT3=
PLAYORDER=
